<mxfile host="app.diagrams.net" modified="2023-05-23T06:30:53.406Z" agent="Mozilla/5.0 (Windows NT 10.0; Win64; x64) AppleWebKit/537.36 (KHTML, like Gecko) Chrome/107.0.0.0 Safari/537.36" etag="AVgkGizxUH2y4hdXvUxU" version="21.3.2" type="device">
  <diagram name="Page-1" id="6xBwMbm9hBdD028TYA0y">
    <mxGraphModel dx="2049" dy="2110" grid="1" gridSize="10" guides="1" tooltips="1" connect="1" arrows="1" fold="1" page="1" pageScale="1" pageWidth="850" pageHeight="1100" math="0" shadow="0">
      <root>
        <mxCell id="0" />
        <mxCell id="1" parent="0" />
        <mxCell id="nGYus3xezQKNGzDj1kpv-2" value="" style="rounded=0;whiteSpace=wrap;html=1;" vertex="1" parent="1">
          <mxGeometry x="150" y="40" width="610" height="710" as="geometry" />
        </mxCell>
        <mxCell id="nGYus3xezQKNGzDj1kpv-3" value="Login" style="text;html=1;strokeColor=none;fillColor=none;align=center;verticalAlign=middle;whiteSpace=wrap;rounded=0;" vertex="1" parent="1">
          <mxGeometry x="355" y="-10" width="140" height="60" as="geometry" />
        </mxCell>
        <mxCell id="nGYus3xezQKNGzDj1kpv-5" value="登陆" style="ellipse;whiteSpace=wrap;html=1;" vertex="1" parent="1">
          <mxGeometry x="340" y="90" width="120" height="80" as="geometry" />
        </mxCell>
        <mxCell id="nGYus3xezQKNGzDj1kpv-7" value="输入用户名和密码" style="ellipse;whiteSpace=wrap;html=1;" vertex="1" parent="1">
          <mxGeometry x="340" y="240" width="120" height="80" as="geometry" />
        </mxCell>
        <mxCell id="nGYus3xezQKNGzDj1kpv-10" value="" style="endArrow=classic;html=1;rounded=0;exitX=0.5;exitY=1;exitDx=0;exitDy=0;entryX=0.5;entryY=0;entryDx=0;entryDy=0;" edge="1" parent="1" source="nGYus3xezQKNGzDj1kpv-5" target="nGYus3xezQKNGzDj1kpv-7">
          <mxGeometry width="50" height="50" relative="1" as="geometry">
            <mxPoint x="380" y="230" as="sourcePoint" />
            <mxPoint x="450" y="190" as="targetPoint" />
          </mxGeometry>
        </mxCell>
        <mxCell id="nGYus3xezQKNGzDj1kpv-11" value="" style="endArrow=classic;html=1;rounded=0;exitX=0.5;exitY=1;exitDx=0;exitDy=0;" edge="1" parent="1" source="nGYus3xezQKNGzDj1kpv-7" target="nGYus3xezQKNGzDj1kpv-12">
          <mxGeometry width="50" height="50" relative="1" as="geometry">
            <mxPoint x="400" y="420" as="sourcePoint" />
            <mxPoint x="450" y="370" as="targetPoint" />
          </mxGeometry>
        </mxCell>
        <mxCell id="nGYus3xezQKNGzDj1kpv-12" value="判断用户名和密码是否正确" style="rhombus;whiteSpace=wrap;html=1;" vertex="1" parent="1">
          <mxGeometry x="325" y="390" width="150" height="120" as="geometry" />
        </mxCell>
        <mxCell id="nGYus3xezQKNGzDj1kpv-13" value="" style="endArrow=classic;html=1;rounded=0;entryX=0;entryY=0.5;entryDx=0;entryDy=0;" edge="1" parent="1" target="nGYus3xezQKNGzDj1kpv-15">
          <mxGeometry relative="1" as="geometry">
            <mxPoint x="475" y="449.5" as="sourcePoint" />
            <mxPoint x="460" y="280" as="targetPoint" />
          </mxGeometry>
        </mxCell>
        <mxCell id="nGYus3xezQKNGzDj1kpv-14" value="NO" style="edgeLabel;resizable=0;align=right;verticalAlign=bottom;labelPosition=left;verticalLabelPosition=top;html=1;" connectable="0" vertex="1" parent="nGYus3xezQKNGzDj1kpv-13">
          <mxGeometry relative="1" as="geometry" />
        </mxCell>
        <mxCell id="nGYus3xezQKNGzDj1kpv-15" value="用户名或密码错误" style="ellipse;whiteSpace=wrap;html=1;" vertex="1" parent="1">
          <mxGeometry x="610" y="410" width="120" height="80" as="geometry" />
        </mxCell>
        <mxCell id="nGYus3xezQKNGzDj1kpv-16" value="" style="edgeStyle=segmentEdgeStyle;endArrow=classic;html=1;curved=0;rounded=0;endSize=8;startSize=8;entryX=1;entryY=0.5;entryDx=0;entryDy=0;exitX=0.5;exitY=0;exitDx=0;exitDy=0;" edge="1" parent="1" source="nGYus3xezQKNGzDj1kpv-15" target="nGYus3xezQKNGzDj1kpv-7">
          <mxGeometry width="50" height="50" relative="1" as="geometry">
            <mxPoint x="645" y="370" as="sourcePoint" />
            <mxPoint x="695" y="320" as="targetPoint" />
            <Array as="points">
              <mxPoint x="670" y="270" />
              <mxPoint x="460" y="270" />
            </Array>
          </mxGeometry>
        </mxCell>
        <mxCell id="nGYus3xezQKNGzDj1kpv-17" value="" style="endArrow=classic;html=1;rounded=0;exitX=0.5;exitY=1;exitDx=0;exitDy=0;entryX=0.5;entryY=0;entryDx=0;entryDy=0;" edge="1" parent="1" source="nGYus3xezQKNGzDj1kpv-12" target="nGYus3xezQKNGzDj1kpv-19">
          <mxGeometry relative="1" as="geometry">
            <mxPoint x="375" y="570" as="sourcePoint" />
            <mxPoint x="475" y="570" as="targetPoint" />
          </mxGeometry>
        </mxCell>
        <mxCell id="nGYus3xezQKNGzDj1kpv-18" value="Label" style="edgeLabel;resizable=0;html=1;align=center;verticalAlign=middle;" connectable="0" vertex="1" parent="nGYus3xezQKNGzDj1kpv-17">
          <mxGeometry relative="1" as="geometry" />
        </mxCell>
        <mxCell id="nGYus3xezQKNGzDj1kpv-19" value="用户登陆成功" style="ellipse;whiteSpace=wrap;html=1;" vertex="1" parent="1">
          <mxGeometry x="340" y="590" width="120" height="80" as="geometry" />
        </mxCell>
      </root>
    </mxGraphModel>
  </diagram>
</mxfile>
